<svg xmlns="http://www.w3.org/2000/svg" width="2751.727" height="385.251" viewBox="0 0 2751.727 385.251"><g transform="translate(-1.42 -43.197)"><path d="M1.42,43.6H75.89V193.39L216.336,43.6h98.256L165.368,193.107,322.237,406.891H224.548L112.418,248.323,75.89,285.416V406.891H1.42Z" transform="translate(0 11.002)"/><path d="M310.321,385.613A158.284,158.284,0,0,1,191.4,428.087,158.851,158.851,0,0,1,72.186,385.613,195.662,195.662,0,0,1,16.97,235.822,191.981,191.981,0,0,1,72.186,86.032,158.852,158.852,0,0,1,191.4,43.559,158.285,158.285,0,0,1,310.321,86.032a191.98,191.98,0,0,1,55.216,149.79,195.662,195.662,0,0,1-55.216,149.79M263.034,330.4a148.658,148.658,0,0,0,26.334-94.575,149.79,149.79,0,0,0-26.334-94.574A86.646,86.646,0,0,0,191.4,107.835a87.212,87.212,0,0,0-71.922,33.413,145.826,145.826,0,0,0-26.9,94.575,145.26,145.26,0,0,0,26.9,94.575A87.213,87.213,0,0,0,191.4,363.809,86.645,86.645,0,0,0,263.034,330.4" transform="translate(409.752 0)"/><path d="M105.707,305.207a71.356,71.356,0,0,0,13.875,37.377,79.851,79.851,0,0,0,64.56,22.369,141.581,141.581,0,0,0,44.739-5.946,42.191,42.191,0,0,0,32.28-42.191A31.147,31.147,0,0,0,245.3,288.5a165.646,165.646,0,0,0-50.4-16.989l-39.359-7.929a249.745,249.745,0,0,1-79.85-28.316,88.912,88.912,0,0,1-36.528-78.718A103.919,103.919,0,0,1,75.126,75.566a152.339,152.339,0,0,1,104.2-32,163.667,163.667,0,0,1,99.388,30.3,108.449,108.449,0,0,1,43.04,88.345H249.834a51.818,51.818,0,0,0-28.316-46.438,98.539,98.539,0,0,0-45.305-9.061,86.646,86.646,0,0,0-48.137,11.61,37.66,37.66,0,0,0-18.688,32,31.43,31.43,0,0,0,17.556,28.316,219.442,219.442,0,0,0,48.42,15.007l63.71,15.007a159.982,159.982,0,0,1,62.861,26.334A89.76,89.76,0,0,1,334.5,309.171a104.769,104.769,0,0,1-38.51,82.682A161.966,161.966,0,0,1,187.256,424.7a178.674,178.674,0,0,1-113.263-32.28,107.033,107.033,0,0,1-41.058-89.194Z" transform="translate(857.882 0.556)"/><rect width="75.32" height="363.291" transform="translate(1315.27 54.602)"/><path d="M55.66,43.6h77.3V266.728a124.308,124.308,0,0,0,8.778,54.649,58.614,58.614,0,0,0,60.029,30.581,56.632,56.632,0,0,0,59.463-30.581,123.741,123.741,0,0,0,9.061-54.649V43.6h78.152V267.011a190,190,0,0,1-17.839,90.327c-22.369,39.359-65.126,58.9-127.7,58.9S97.284,396.7,74.632,357.338a190,190,0,0,1-17.839-90.327Z" transform="translate(1481.606 11.002)"/><path d="M71.25,43.6H146V193.39L286.449,43.6h98.256L235.481,193.107,392.067,406.891H294.661L182.814,248.323,146,285.416V406.891H71.25Z" transform="translate(1907.458 11.002)"/><path d="M381.435,385.3a188.016,188.016,0,0,1-238.135,0A195.662,195.662,0,0,1,86.668,235.506,191.981,191.981,0,0,1,143.3,85.715a188.017,188.017,0,0,1,238.135,0,191.981,191.981,0,0,1,54.933,149.79A195.662,195.662,0,0,1,381.435,385.3M335,330.081a148.658,148.658,0,0,0,25.484-94.575A149.79,149.79,0,0,0,335,140.931a93.725,93.725,0,0,0-143.561,0A145.827,145.827,0,0,0,165.1,235.506a145.264,145.264,0,0,0,28.316,94.575,93.725,93.725,0,0,0,143.561,0" transform="translate(2316.21 0.317)"/></g></svg>