<?xml version="1.0" standalone="no"?>
<!DOCTYPE svg PUBLIC "-//W3C//DTD SVG 20010904//EN"
 "http://www.w3.org/TR/2001/REC-SVG-20010904/DTD/svg10.dtd">
<svg version="1.0" xmlns="http://www.w3.org/2000/svg"
 width="464.000000pt" height="82.000000pt" viewBox="0 0 464.000000 82.000000"
 preserveAspectRatio="xMidYMid meet">

<g transform="translate(0.000000,82.000000) scale(0.100000,-0.100000)"
fill="#000000" stroke="none">
<path d="M3009 814 c-20 -6 -29 -161 -30 -539 l0 -260 48 -7 c26 -3 63 -7 80
-7 l33 -1 -3 162 -2 162 52 8 c157 23 263 114 263 225 -1 88 -88 192 -196 233
-57 21 -205 36 -245 24z m241 -171 c0 -16 -14 -48 -30 -73 -16 -25 -30 -52
-30 -60 0 -18 -77 55 -96 93 -8 15 -12 32 -9 37 9 15 36 12 56 -6 17 -15 20
-15 49 10 41 34 60 34 60 -1z"/>
<path d="M1979 793 l-36 -4 -6 -127 c-4 -70 -7 -238 -7 -373 l0 -247 23 -6
c12 -3 46 -6 76 -6 l53 0 -7 149 -7 150 38 6 c169 28 264 104 264 210 -1 124
-132 234 -295 247 -33 3 -76 3 -96 1z m138 -189 c26 -26 26 -26 59 -8 72 39
63 -26 -13 -102 l-37 -37 -8 24 c-5 13 -23 45 -40 72 -25 39 -28 50 -18 62 17
21 27 19 57 -11z"/>
<path d="M0 386 l0 -354 193 -4 c105 -2 195 -2 198 1 3 3 4 30 1 59 l-4 52
-66 0 c-37 0 -90 3 -118 6 l-52 7 2 291 1 291 -77 3 -78 3 0 -355z"/>
<path d="M1508 710 c-63 -33 -124 -88 -139 -127 -27 -72 -3 -128 88 -203 127
-105 126 -197 -2 -236 -27 -8 -69 -14 -95 -14 -47 0 -47 0 -54 -38 -10 -63
-12 -62 62 -62 98 0 161 22 221 76 61 55 87 122 71 188 -10 46 -37 75 -127
136 -80 54 -91 69 -78 107 8 21 28 37 81 63 l71 35 -15 53 c-8 28 -17 52 -21
52 -3 -1 -32 -14 -63 -30z"/>
<path d="M4493 700 c-68 -34 -128 -96 -138 -141 -14 -61 12 -107 100 -179 105
-87 101 -179 -10 -209 -22 -6 -61 -11 -87 -11 -42 0 -48 -3 -54 -24 -3 -13 -4
-35 -2 -47 3 -23 7 -24 74 -23 156 3 273 104 261 227 -5 57 -28 84 -127 149
-51 34 -66 49 -68 72 -5 38 28 71 89 91 54 18 58 30 36 93 l-12 33 -62 -31z"/>
<path d="M757 658 c-32 -110 -107 -288 -193 -458 -46 -90 -82 -165 -81 -166 1
-2 43 -4 92 -5 l90 -2 45 114 46 114 80 0 79 0 55 -112 55 -112 98 0 c53 -1
97 2 97 6 0 25 -352 574 -417 651 l-28 33 -18 -63z m141 -187 c2 -12 -10 -43
-26 -69 -16 -26 -31 -53 -34 -60 -5 -20 -110 94 -106 116 5 23 36 27 58 7 18
-17 21 -16 51 9 36 30 53 30 57 -3z"/>
<path d="M3750 695 c0 -35 -116 -317 -191 -465 -44 -86 -79 -159 -79 -163 0
-4 38 -7 86 -7 l85 0 13 32 c8 18 28 68 46 111 l32 77 69 0 69 0 29 -46 c16
-25 42 -74 57 -110 l27 -64 94 0 c51 0 93 3 93 6 0 14 -241 403 -318 513 -86
122 -112 149 -112 116z m40 -220 c22 -23 25 -24 46 -10 44 29 74 13 53 -27
-14 -27 -80 -98 -91 -98 -4 0 -8 4 -8 9 0 5 -16 37 -36 70 -20 33 -33 65 -29
71 11 18 41 11 65 -15z"/>
<path d="M2453 388 c4 -83 7 -195 7 -250 l0 -98 195 0 195 0 0 60 0 60 -119 0
c-66 0 -126 3 -135 6 -11 4 -16 19 -16 44 0 37 1 37 46 44 26 3 82 6 125 6
l79 0 0 40 0 40 -125 -7 -125 -6 0 61 0 62 125 0 125 0 0 45 0 45 -192 0 -191
0 6 -152z"/>
</g>
</svg>
