<?xml version="1.0" standalone="no"?>
<!DOCTYPE svg PUBLIC "-//W3C//DTD SVG 20010904//EN"
 "http://www.w3.org/TR/2001/REC-SVG-20010904/DTD/svg10.dtd">
<svg version="1.0" xmlns="http://www.w3.org/2000/svg"
 width="400.000000pt" height="250.000000pt" viewBox="0 0 400.000000 250.000000"
 preserveAspectRatio="xMidYMid meet">

<g transform="translate(0.000000,250.000000) scale(0.100000,-0.100000)"
fill="#000000" stroke="none">
<path d="M0 1260 l0 -390 1980 0 1980 0 0 390 0 390 -1980 0 -1980 0 0 -390z
m1935 246 c85 -50 131 -150 123 -268 -13 -176 -165 -282 -334 -233 -182 52
-242 305 -107 455 56 62 104 81 199 76 56 -2 82 -9 119 -30z m-1456 14 c108
-31 143 -174 61 -244 -29 -23 -29 -25 -12 -38 30 -21 44 -57 53 -132 4 -39 11
-79 14 -88 6 -16 0 -18 -48 -18 -31 0 -58 4 -62 9 -3 6 -9 42 -14 82 -13 101
-28 114 -129 114 l-77 0 -2 -90 c-1 -49 -2 -96 -2 -102 -1 -9 -19 -13 -56 -13
l-55 0 0 265 0 265 148 0 c81 0 163 -4 181 -10z m571 -40 l0 -50 -135 0 -135
0 0 -55 0 -55 125 0 125 0 0 -45 0 -45 -125 0 -125 0 0 -65 0 -65 140 0 140 0
0 -50 0 -50 -200 0 -200 0 0 265 0 265 195 0 195 0 0 -50z m220 -127 c30 -94
58 -174 61 -177 3 -3 31 75 63 174 l57 180 61 0 c44 0 59 -3 56 -12 -3 -7 -43
-127 -89 -266 l-84 -253 -65 3 -64 3 -83 250 c-45 138 -82 256 -82 263 -1 10
14 12 56 10 l57 -3 56 -172z m970 -38 l0 -215 125 0 125 0 0 -44 0 -43 -177
-5 c-98 -3 -181 -3 -185 -1 -5 2 -8 121 -8 264 l0 259 60 0 60 0 0 -215z m349
42 c30 -94 57 -175 60 -179 4 -4 33 73 64 172 l57 180 61 0 c45 0 60 -3 57
-12 -3 -7 -42 -124 -87 -259 l-82 -247 -37 -3 c-20 -2 -51 -3 -68 -1 l-31 3
-81 252 c-45 139 -82 255 -82 260 0 4 26 7 58 7 l57 0 54 -173z m731 123 l0
-50 -135 0 -135 0 0 -55 0 -55 125 0 125 0 0 -45 0 -45 -125 0 -125 0 0 -65 0
-65 140 0 140 0 0 -45 0 -45 -200 0 -200 0 0 260 0 260 195 0 195 0 0 -50z
m418 31 c20 -11 45 -33 55 -49 34 -59 15 -166 -34 -192 -20 -11 -20 -12 5 -34
27 -26 46 -82 46 -138 0 -20 4 -48 10 -62 l10 -26 -60 0 c-66 0 -59 -10 -75
113 -10 74 -29 87 -125 87 l-80 0 0 -100 0 -100 -55 0 -55 0 0 260 0 260 160
0 c138 0 166 -3 198 -19z"/>
<path d="M1716 1409 c-109 -95 -51 -319 82 -319 90 0 142 65 142 175 0 117
-47 175 -142 175 -39 0 -54 -6 -82 -31z"/>
<path d="M268 1434 c-5 -4 -8 -38 -8 -76 l0 -68 85 0 c99 0 125 15 125 73 0
54 -28 71 -119 75 -42 2 -79 0 -83 -4z"/>
<path d="M3492 1368 l3 -73 83 0 c98 1 117 13 117 76 0 58 -20 69 -122 69
l-84 0 3 -72z"/>
</g>
</svg>
